m blocks/default.mtl

n Stone

v 0.500000 -0.500000 -0.500000
v 0.500000 -0.500000 0.500000
v -0.500000 -0.500000 0.500000
v -0.500000 -0.500000 -0.500000
v 0.500000 0.500000 -0.500000
v 0.500000 0.500000 0.500000
v -0.500000 0.500000 0.500000
v -0.500000 0.500000 -0.500000
v 0.500000 -0.500000 -0.500000
v -0.500000 -0.500000 -0.500000
v 0.500000 0.500000 -0.500000
v -0.500000 0.500000 -0.500000
vt 0.000100 0.999900
vt 0.999900 0.000100
vt 0.999900 0.999900
vt 0.000100 0.999900
vt 0.999899 0.000100
vt 0.999900 0.999899
vt 0.000100 0.000100
vt 0.999900 0.000100
vt 0.999900 0.999900
vt 0.000100 0.000100
vt 0.999900 0.000100
vt 0.000100 0.999900
vt 0.999900 0.000100
vt 0.999900 0.999900
vt 1.000000 0.000000
vt 0.666667 0.000000
vt 1.000000 0.000000
vt 0.999900 0.999900
vt 0.000100 0.000100
vt 0.999900 0.000100
vt 0.000000 0.666667
vt 0.000000 1.000000
vt 0.000000 0.666667
vt 0.999900 0.000100
vt 0.999900 0.999900
vt 0.000100 0.999900
vt 0.000100 0.000100
vt 0.000100 0.999900
vt 0.000100 0.999900
vt 0.666667 0.000000
vt 0.000100 0.999900
vt 0.000000 1.000000
vn 0.0000 -1.0000 0.0000
vn 0.0000 1.0000 0.0000
vn 1.0000 -0.0000 0.0000
vn 0.0000 -0.0000 1.0000
vn -1.0000 -0.0000 -0.0000
vn 0.0000 0.0000 -1.0000
usemtl 0

# s off

f 2/1/1 4/2/1 1/3/1
f 8/4/2 6/5/2 5/6/2
f 5/6/3 2/7/3 1/8/3
f 6/9/4 3/10/4 2/11/4
f 3/12/5 8/13/5 4/14/5
f 4/15/4 12/16/4 10/17/4
f 9/18/6 12/19/6 11/20/6
f 1/21/4 10/22/4 9/23/4
f 5/6/4 9/24/4 11/25/4
f 8/4/4 11/25/4 12/26/4
f 2/1/1 3/10/1 4/2/1
f 8/4/2 7/27/2 6/5/2
f 5/6/3 6/28/3 2/7/3
f 6/9/4 7/29/4 3/10/4
f 3/12/5 7/27/5 8/13/5
f 4/15/4 8/30/4 12/16/4
f 9/18/6 10/31/6 12/19/6
f 1/21/4 4/32/4 10/22/4
f 5/6/4 1/8/4 9/24/4
f 8/4/4 5/6/4 11/25/4

n Cobblestone

v 0.500000 -0.500000 -0.500000
v 0.500000 -0.500000 0.500000
v -0.500000 -0.500000 0.500000
v -0.500000 -0.500000 -0.500000
v 0.500000 0.500000 -0.500000
v 0.500000 0.500000 0.500000
v -0.500000 0.500000 0.500000
v -0.500000 0.500000 -0.500000
vt 0.000100 0.999900
vt 0.999900 0.000100
vt 0.999900 0.999900
vt 0.000100 0.999900
vt 0.999899 0.000100
vt 0.999900 0.999899
vt 0.000100 0.000100
vt 0.999900 0.000100
vt 0.999900 0.999900
vt 0.000100 0.000100
vt 0.999900 0.000100
vt 0.000100 0.999900
vt 0.999900 0.000100
vt 0.999900 0.999900
vt 0.000100 0.000100
vt 0.999900 0.000100
vt 0.000100 0.000100
vt 0.000100 0.999900
vt 0.000100 0.999900
vt 0.000100 0.999900
vn 0.0000 -1.0000 0.0000
vn 0.0000 1.0000 0.0000
vn 1.0000 -0.0000 0.0000
vn 0.0000 -0.0000 1.0000
vn -1.0000 -0.0000 -0.0000
vn 0.0000 0.0000 -1.0000
usemtl 1
s off
f 2/1/1 4/2/1 1/3/1
f 8/4/2 6/5/2 5/6/2
f 5/6/3 2/7/3 1/8/3
f 6/9/4 3/10/4 2/11/4
f 3/12/5 8/13/5 4/14/5
f 1/3/6 8/15/6 5/16/6
f 2/1/1 3/10/1 4/2/1
f 8/4/2 7/17/2 6/5/2
f 5/6/3 6/18/3 2/7/3
f 6/9/4 7/19/4 3/10/4
f 3/12/5 7/17/5 8/13/5
f 1/3/6 4/20/6 8/15/6

n Grass

v 0.500000 -0.500000 -0.500000
v 0.500000 -0.500000 0.500000
v -0.500000 -0.500000 0.500000
v -0.500000 -0.500000 -0.500000
v 0.500000 0.500000 -0.499999
v 0.499999 0.500000 0.500000
v -0.500000 0.500000 0.500000
v -0.500000 0.500000 -0.500000
vt 1.000000 0.000000
vt 0.000000 1.000000
vt 0.000000 0.000000
vt 1.000000 1.000000
vt 1.000000 1.000000
vt 0.000000 0.000000
vt 1.000000 0.000000
vt 0.000000 1.000000
vt 0.999900 0.999900
vt 0.000100 0.000100
vt 0.999900 0.000100
vt 0.999900 0.999900
vt 0.000100 0.000100
vt 0.999900 0.000100
vt 0.999900 0.000100
vt 0.000100 0.999900
vt 0.000100 0.000100
vt 0.000100 0.000100
vt 0.999900 0.999900
vt 0.000100 0.999900
vt 0.000100 0.999900
vt 0.000100 0.999900
vt 0.999900 0.999900
vt 0.999900 0.000100
vn 0.0000 -1.0000 0.0000
vn 0.0000 1.0000 0.0000
vn 1.0000 -0.0000 0.0000
vn -0.0000 -0.0000 1.0000
vn -1.0000 -0.0000 -0.0000
vn 0.0000 0.0000 -1.0000
usemtl 2
s off
f 2/1/1 4/2/1 1/3/1
f 2/1/1 3/4/1 4/2/1
usemtl 3
f 8/5/2 6/6/2 5/7/2
f 8/5/2 7/8/2 6/6/2
usemtl 4
f 5/9/3 2/10/3 1/11/3
f 6/12/4 3/13/4 2/14/4
f 3/15/5 8/16/5 4/17/5
f 1/18/6 8/19/6 5/20/6
f 5/9/3 6/21/3 2/10/3
f 6/12/4 7/22/4 3/13/4
f 3/15/5 7/23/5 8/16/5
f 1/18/6 4/24/6 8/19/6
